<?xml version="1.0" standalone="no"?>
<!DOCTYPE svg PUBLIC "-//W3C//DTD SVG 20010904//EN"
 "http://www.w3.org/TR/2001/REC-SVG-20010904/DTD/svg10.dtd">
<svg version="1.0" xmlns="http://www.w3.org/2000/svg"
 width="256.000000pt" height="256.000000pt" viewBox="0 0 256.000000 256.000000"
 preserveAspectRatio="xMidYMid meet">

<g transform="translate(0.000000,256.000000) scale(0.100000,-0.100000)"
fill="#000000" stroke="none">
<path d="M1336 1874 c-78 -25 -171 -124 -229 -244 -25 -52 -51 -116 -58 -142
-17 -71 -33 -61 -22 15 4 34 8 107 8 162 0 84 -4 107 -23 142 -49 93 -150 99
-261 14 -84 -64 -205 -272 -271 -466 -17 -49 -28 -78 -26 -64 50 251 58 440
22 507 -49 94 -174 95 -267 2 -80 -80 -148 -259 -105 -276 11 -4 31 11 67 50
59 65 128 109 161 104 23 -3 23 -5 21 -113 -4 -161 -29 -367 -70 -565 -46
-221 -51 -275 -28 -300 24 -26 76 -35 119 -20 45 14 50 24 70 131 34 180 152
532 233 694 45 89 112 185 138 197 38 17 71 -2 84 -49 27 -97 8 -288 -64 -654
-44 -224 -46 -238 -31 -272 8 -21 26 -42 39 -48 32 -15 103 5 121 34 8 12 26
87 41 167 84 462 185 745 290 810 18 11 44 20 57 20 85 0 87 -139 6 -535 -50
-248 -55 -339 -18 -405 65 -116 214 -129 346 -30 l64 49 0 -30 c0 -33 46 -89
73 -89 50 0 62 20 147 260 34 96 66 179 70 183 4 5 15 -24 24 -64 29 -127 70
-169 169 -169 40 0 69 8 114 30 34 17 66 37 73 45 6 7 14 49 17 91 l6 77 -34
-26 c-45 -34 -117 -67 -150 -67 -46 0 -65 33 -60 109 10 174 9 184 -22 199
-57 27 -140 -32 -197 -140 -14 -27 -28 -48 -32 -48 -5 0 -8 43 -8 95 0 90 -1
95 -23 100 -36 10 -77 -11 -92 -48 -7 -18 -24 -84 -36 -147 -22 -109 -25 -119
-78 -189 -87 -117 -163 -159 -204 -113 -26 29 -21 93 27 319 54 249 70 387 56
481 -28 198 -111 272 -254 226z"/>
</g>
</svg>
