<?xml version="1.0" standalone="no"?>
<!DOCTYPE svg PUBLIC "-//W3C//DTD SVG 20010904//EN"
 "http://www.w3.org/TR/2001/REC-SVG-20010904/DTD/svg10.dtd">
<svg version="1.0" xmlns="http://www.w3.org/2000/svg"
 width="860.000000pt" height="901.000000pt" viewBox="0 0 860.000000 901.000000"
 preserveAspectRatio="xMidYMid meet">

<g transform="translate(0.000000,901.000000) scale(0.100000,-0.100000)"
fill="#000000" stroke="none">
<path d="M6350 7704 c-327 -57 -593 -193 -802 -410 -256 -267 -353 -592 -351
-1179 1 -297 28 -495 105 -764 53 -184 182 -478 294 -671 329 -565 412 -770
445 -1098 37 -364 -82 -715 -330 -975 -165 -173 -356 -283 -607 -348 -79 -21
-111 -24 -284 -23 -186 0 -200 1 -310 31 -457 122 -803 488 -890 941 -25 129
-27 355 -5 487 45 261 127 455 381 895 201 351 304 592 374 875 52 214 71 352
77 585 6 220 -14 506 -46 651 -56 250 -172 466 -334 621 -82 79 -138 114 -227
142 -262 83 -474 50 -669 -104 -130 -103 -268 -339 -300 -515 -57 -307 -25
-455 194 -895 178 -357 216 -465 236 -665 10 -96 9 -127 -5 -210 -46 -276
-206 -495 -452 -620 -227 -114 -513 -118 -743 -9 -221 104 -381 292 -452 531
-27 89 -36 276 -19 380 14 89 58 235 99 326 43 96 223 460 235 476 5 7 11 20
12 29 3 18 35 94 44 102 3 3 6 10 6 15 1 6 13 46 27 90 80 254 106 521 72 721
-68 388 -229 549 -530 531 -180 -11 -632 -147 -835 -252 -142 -74 -219 -153
-262 -273 -17 -46 -21 -80 -21 -177 0 -103 10 -178 72 -535 39 -228 139 -818
221 -1310 83 -492 171 -1012 195 -1155 24 -143 80 -474 124 -735 343 -2037
326 -1940 367 -2067 54 -167 119 -258 236 -336 146 -96 289 -151 558 -212
1151 -264 3061 -256 4165 16 180 44 269 76 389 137 185 94 271 193 334 387 40
122 53 190 192 1020 67 396 141 837 165 980 48 280 186 1102 370 2195 63 377
147 874 186 1105 66 392 71 428 67 540 -3 110 -6 126 -36 188 -48 103 -122
171 -263 240 -199 97 -480 183 -864 264 -158 33 -184 36 -375 38 -113 2 -216
1 -230 -1z"/>
</g>
</svg>
