<?xml version="1.0" standalone="no"?>
<!DOCTYPE svg PUBLIC "-//W3C//DTD SVG 20010904//EN"
 "http://www.w3.org/TR/2001/REC-SVG-20010904/DTD/svg10.dtd">
<svg version="1.0" xmlns="http://www.w3.org/2000/svg"
 width="200.000000pt" height="200.000000pt" viewBox="0 0 200.000000 200.000000"
 preserveAspectRatio="xMidYMid meet">

<g transform="translate(0.000000,200.000000) scale(0.100000,-0.100000)"
fill="#000000" stroke="none">
<path d="M1045 1602 c-11 -2 -28 -11 -37 -19 -15 -13 -35 -15 -122 -9 l-105 7
-16 -38 c-31 -73 -25 -78 99 -78 l109 0 9 -30 c11 -40 2 -114 -17 -135 -8 -9
-15 -22 -15 -28 0 -13 -32 -89 -57 -136 -9 -16 -18 -60 -21 -97 -5 -67 -5 -69
-32 -69 -15 0 -39 -11 -55 -25 l-27 -26 7 51 c7 50 6 53 -30 53 -31 0 -35 -4
-46 -49 l-12 -45 -21 20 c-19 18 -35 21 -109 21 -80 0 -87 2 -87 20 0 19 -7
20 -107 20 -120 0 -137 -7 -166 -69 -22 -45 -13 -76 26 -89 29 -9 30 -10 7
-11 -35 -2 -49 -13 -52 -41 -3 -20 3 -25 30 -31 45 -9 53 -19 63 -76 11 -58
29 -74 85 -71 26 1 53 -6 70 -17 31 -20 102 -15 116 8 5 10 32 18 73 22 36 4
65 12 65 17 0 15 103 4 195 -21 107 -28 259 -28 373 -1 106 25 125 17 82 -37
-25 -32 -26 -86 -2 -133 14 -29 23 -36 57 -40 81 -10 170 5 247 43 40 20 86
48 102 62 l29 27 -18 55 c-25 73 -34 83 -81 90 -35 4 -43 10 -65 51 -42 80
-64 98 -163 137 -81 31 -93 39 -89 56 4 15 0 22 -15 26 -13 3 -19 10 -15 19 7
18 -15 44 -37 44 -13 0 -19 12 -23 52 -4 28 -11 54 -16 57 -5 3 -11 17 -12 31
-3 17 -11 26 -26 28 -20 3 -23 9 -23 53 0 46 -2 49 -25 49 -25 0 -25 1 -25 88
l0 87 111 0 c99 0 112 2 125 20 13 18 12 80 -2 94 -2 2 -51 -2 -110 -8 -70 -8
-110 -9 -118 -2 -19 16 -60 28 -81 23z m25 -32 c0 -5 -4 -10 -10 -10 -5 0 -10
5 -10 10 0 6 5 10 10 10 6 0 10 -4 10 -10z m55 -21 c-4 -5 -12 -9 -18 -9 -7 0
-6 4 3 10 13 8 12 10 -2 10 -10 0 -18 5 -18 10 0 7 7 7 20 0 11 -6 18 -15 15
-21z m2 -25 c-3 -3 -12 -4 -19 -1 -8 3 -5 6 6 6 11 1 17 -2 13 -5z m165 -538
c-2 -21 1 -26 18 -26 27 0 21 -24 -7 -28 -16 -2 -22 -13 -28 -49 -9 -63 -22
-93 -39 -93 -18 0 -32 20 -20 29 13 9 17 111 4 111 -5 0 -10 7 -10 15 0 8 6
15 14 15 8 0 18 10 22 23 14 44 51 47 46 3z m-532 4 c0 -15 -7 -20 -29 -20
-24 0 -28 3 -24 20 3 13 14 20 29 20 17 0 24 -6 24 -20z m-312 -7 c-3 -15 -18
-19 -88 -23 -79 -5 -85 -7 -88 -27 -3 -22 -1 -22 58 -17 69 6 100 -10 100 -51
0 -26 -29 -58 -31 -34 0 10 -2 11 -6 2 -9 -24 -30 -14 -26 11 6 31 -6 37 -75
38 -31 0 -51 2 -44 5 13 5 17 33 5 33 -5 0 -13 11 -19 24 -20 44 6 56 119 56
88 0 98 -2 95 -17z m200 -44 c16 -25 7 -103 -14 -120 -9 -8 -14 -8 -14 -1 0 6
5 14 10 17 15 9 12 25 -3 19 -10 -3 -14 4 -15 25 -1 45 -9 53 -50 46 -20 -3
-37 -7 -39 -9 -2 -1 -6 -24 -9 -49 l-7 -47 34 -1 c19 -1 43 -1 54 0 12 0 15
-2 6 -5 -11 -5 -11 -8 0 -15 9 -5 -7 -9 -44 -9 -50 0 -59 -3 -67 -22 -6 -17
-9 -18 -9 -6 -1 9 -7 23 -15 30 -11 12 -12 27 -2 84 10 65 13 69 41 75 17 4
53 7 80 8 41 1 53 -3 63 -20z m102 8 c0 -43 -24 -124 -36 -124 -8 0 -14 7 -14
16 0 13 -2 13 -9 2 -12 -18 -1 78 11 102 10 20 48 23 48 4z m220 1 c0 -7 -7
-54 -17 -105 -14 -77 -20 -93 -40 -102 -16 -7 -23 -7 -23 0 0 6 -4 7 -10 4 -5
-3 -10 -2 -10 4 0 5 5 13 10 16 6 3 10 13 10 21 0 10 -12 14 -40 14 -25 0 -40
5 -41 13 0 9 -2 9 -6 0 -3 -9 -10 -8 -23 5 -15 14 -17 24 -10 62 12 65 36 80
126 80 52 0 74 -4 74 -12z m205 -2 c18 -17 8 -93 -12 -101 -12 -4 -14 0 -10
16 4 16 3 19 -5 11 -14 -14 -2 -46 13 -36 7 4 10 1 7 -7 -3 -8 -13 -13 -22
-13 -9 1 -16 -4 -16 -12 0 -9 -11 -14 -30 -14 -16 0 -30 4 -30 9 0 11 -33 9
-41 -2 -8 -11 -36 2 -44 21 -9 25 15 121 33 132 26 15 141 12 157 -4z m-735
-5 c0 -7 -31 -11 -82 -11 -99 0 -88 16 13 19 43 1 69 -2 69 -8z"/>
<path d="M836 916 c-8 -6 -17 -27 -20 -47 l-7 -37 45 -3 c42 -4 45 -2 50 25
13 62 8 75 -24 74 -17 -1 -37 -6 -44 -12z"/>
<path d="M1056 914 c-9 -8 -17 -26 -17 -40 -1 -13 -2 -30 -3 -36 -1 -7 16 -15
37 -19 44 -7 56 7 60 68 2 35 0 37 -30 40 -19 2 -38 -4 -47 -13z"/>
</g>
</svg>
